# xmcd CD database file
#
# Track frame offsets:
#	150
#	33195
#	70525
#	106025
#	141800
#	174075
#	199860
#	239410
#	263735
#	299385
#
# Disc length: 4168 seconds
#
# Revision: 0
# Processed by: cddbd v1.5.2PL0 Copyright (c) Steve Scherf et al.
# Submitted via: CDex 1.70beta2
#
DISCID=8210460a
DTITLE=Devin Hoff - Memory From Below
DYEAR=2003
DGENRE=Jazz
TTITLE0=Confession Of Faith
TTITLE1=Sixth Sun
TTITLE2=Assunta
TTITLE3=Memory From Below
TTITLE4=Surplus Value
TTITLE5=Blooze
TTITLE6=Earthquake Weather
TTITLE7=Internationale
TTITLE8=Seniors Last Hour
TTITLE9=Note On The Margin
EXTD=YEAR: 2003
EXTT0=
EXTT1=
EXTT2=
EXTT3=
EXTT4=
EXTT5=
EXTT6=
EXTT7=
EXTT8=
EXTT9=
PLAYORDER=
